#!OML:ASF Y:\EmotionMaleHayes\Project 1\Capture day 1\Session 1\Male1.ASF
:FULLY-SPECIFIED
:DEGREES
1089
root 42.2662 16.5391 -11.1076 537.475 -38.4651 536.669
lowerback 7.48837 2.46867 -7.31651
upperback 2.83835 2.41096 -3.24153
thorax -1.42216 1.0612 0.533744
lowerneck -13.6214 14.2113 15.4376
upperneck 26.7403 19.5886 -13.2873
head 14.4564 8.31384 -4.28775
rclavicle -1.34378e-013 5.08889e-014
rhumerus -39.1086 5.57024 -84.0911
rradius 45.5299
rwrist 1.77027
rhand -8.28139 -25.1604
rfingers 7.12502
rthumb 17.6381 -54.3804
lclavicle -1.34378e-013 5.08889e-014
lhumerus -37.363 -7.49006 87.4595
lradius 34.2579
lwrist 8.0377
lhand -12.9659 -23.089
lfingers 7.12502
lthumb 13.1261 6.47791
rfemur -6.71121 -0.645215 6.40738
rtibia 69.657
rfoot 1.29471 0.278109
rtoes 12.6299
lfemur -1.82365 4.87341 -37.1225
ltibia 15.8131
lfoot -15.6336 8.28203
ltoes 25.409
1090
root 42.1625 16.5766 -11.2085 537.407 -39.641 536.612
lowerback 7.59683 2.27865 -7.32007
upperback 2.92029 2.15717 -3.1644
thorax -1.38384 0.933379 0.63735
lowerneck -13.6308 14.1896 14.8821
upperneck 26.8111 19.5366 -12.7351
head 14.3259 8.30386 -3.9956
rclavicle -4.22417e-014 -6.20208e-014
rhumerus -39.7868 5.49147 -84.7385
rradius 44.3034
rwrist 2.50381
rhand -7.65702 -24.6974
rfingers 7.12502
rthumb 18.2388 -53.8623
lclavicle -4.22417e-014 -6.20208e-014
lhumerus -36.9626 -9.02387 88.6038
lradius 35.6713
lwrist 7.67415
lhand -12.921 -23.3647
lfingers 7.12502
lthumb 13.1694 6.19935
rfemur -7.85413 -0.537454 6.36304
rtibia 69.9142
rfoot 0.578618 0.301203
rtoes 11.877
lfemur -0.428751 4.43185 -37.2542
ltibia 14.9181
lfoot -15.5393 7.53886
ltoes 24.3635
1091
root 42.0675 16.6123 -11.3069 537.43 -40.9187 536.457
lowerback 7.8028 2.07652 -7.50307
upperback 2.96087 1.86095 -3.07293
thorax -1.44451 0.786885 0.855661
lowerneck -13.6324 14.2003 14.5333
upperneck 26.9191 19.5646 -12.4455
head 14.291 8.31294 -3.82461
rclavicle -6.85807e-015 2.54444e-014
rhumerus -40.516 5.3186 -85.3338
rradius 43.1482
rwrist 3.38141
rhand -7.35163 -24.7404
rfingers 7.12502
rthumb 18.5326 -53.8776
lclavicle -6.85807e-015 2.54444e-014
lhumerus -36.5481 -10.776 89.7449
lradius 37.0832
lwrist 7.73439
lhand -12.5885 -23.2149
lfingers 7.12502
lthumb 13.4898 6.32826
rfemur -8.98749 -0.588618 6.22617
rtibia 69.8865
rfoot -0.191758 -0.0794875
rtoes 10.0674
lfemur 0.857102 3.88678 -37.4437
ltibia 14.085
lfoot -15.5763 6.75733
ltoes 26.9897
1092
root 41.9713 16.6404 -11.4027 537.444 -42.1417 536.568
lowerback 7.88381 1.94633 -7.4943
upperback 2.94134 1.69191 -2.96418
thorax -1.50041 0.709075 0.977213
lowerneck -13.8533 14.1034 14.5991
upperneck 27.2074 19.4175 -12.4552
head 14.4502 8.23349 -3.8661
rclavicle -8.73659e-014 6.75868e-014
rhumerus -41.4065 5.02527 -85.9328
rradius 42.2396
rwrist 4.02223
rhand -7.04744 -24.9172
rfingers 7.12502
rthumb 18.8252 -54.0262
lclavicle -8.73659e-014 6.75868e-014
lhumerus -36.1946 -12.7365 90.8078
lradius 38.5403
lwrist 7.61882
lhand -12.2342 -23.9851
lfingers 7.12502
lthumb 13.8313 5.53503
rfemur -10.2693 -0.53409 6.32958
rtibia 69.6823
rfoot -1.16131 -0.606142
rtoes 9.38913
lfemur 1.96956 3.14608 -37.4466
ltibia 13.1366
lfoot -15.569 6.07641
ltoes 30.211
1093
root 41.8767 16.668 -11.4995 537.944 -43.4829 536.231
lowerback 7.74582 1.76356 -7.95043
upperback 2.90312 1.44044 -2.83267
thorax -1.45786 0.585793 1.39283
lowerneck -13.9814 14.1176 14.6115
upperneck 27.3853 19.4823 -12.5658
head 14.5864 8.23491 -3.8948
rclavicle 9.34288e-015 5.48646e-014
rhumerus -42.2971 4.94938 -86.4261
rradius 41.5213
rwrist 4.30112
rhand -6.59228 -25.1418
rfingers 7.12502
rthumb 19.2629 -54.2078
lclavicle 9.34288e-015 5.48646e-014
lhumerus -35.8758 -14.2387 91.8044
lradius 40.119
lwrist 7.32329
lhand -12.8223 -24.6147
lfingers 7.12502
lthumb 13.2645 4.94322
rfemur -11.6433 -0.582339 5.98504
rtibia 69.2888
rfoot -2.15523 -1.13644
rtoes 7.71701
lfemur 2.95534 2.2745 -37.8983
ltibia 12.0697
lfoot -15.0473 5.52365
ltoes 25.8388
